# xmcd CD database file generated by Grip 2.9
# 
# Track frame offsets:
#       150
#       13891
#       33388
# 
# Disc length: 644 seconds
# 
# Revision: 3
# Processed by: cddbd v1.4b41PL1 Copyright (c) Steve Scherf et al.
# Submitted via: Grip 2.9
# 
DISCID=1d028203
DTITLE=Nashville City - Getting closer
DYEAR=1900
DGENRE=
TTITLE0=Living in the same house
TTITLE1=Country lady
TTITLE2=Ocean of love
EXTD=
EXTT0=
EXTT1=
EXTT2=
PLAYORDER=
